<svg width="129" height="303" viewBox="0 0 129 303" fill="none" xmlns="http://www.w3.org/2000/svg">
<path d="M0.828125 294V252.75H9.07812V286.969H17.5625V294H0.828125ZM29.75 294.375C26.4531 294.375 23.9297 293.383 22.1797 291.398C20.4453 289.398 19.5781 286.516 19.5781 282.75V263.156C19.5781 259.625 20.4375 256.945 22.1562 255.117C23.8906 253.289 26.4219 252.375 29.75 252.375C33.0781 252.375 35.6016 253.289 37.3203 255.117C39.0547 256.945 39.9219 259.625 39.9219 263.156V282.75C39.9219 286.516 39.0469 289.398 37.2969 291.398C35.5625 293.383 33.0469 294.375 29.75 294.375ZM29.8203 286.781C31.0703 286.781 31.6953 285.57 31.6953 283.148V263.016C31.6953 260.984 31.0859 259.969 29.8672 259.969C28.4922 259.969 27.8047 261.008 27.8047 263.086V283.195C27.8047 284.477 27.9609 285.398 28.2734 285.961C28.5859 286.508 29.1016 286.781 29.8203 286.781ZM47.0469 294L41.9609 252.727H49.8125L52.8359 280.805L55.5312 252.727H63.3828L58.2969 294H47.0469ZM65.7969 294V252.75H82.2969V260.719H74.1875V268.758H81.9688V276.516H74.1875V285.961H82.8359V294H65.7969ZM85.5781 294V252.75H98.2344C100.344 252.75 101.938 253.234 103.016 254.203C104.094 255.156 104.812 256.5 105.172 258.234C105.547 259.953 105.734 261.977 105.734 264.305C105.734 266.555 105.445 268.352 104.867 269.695C104.305 271.039 103.234 271.969 101.656 272.484C102.953 272.75 103.859 273.398 104.375 274.43C104.906 275.445 105.172 276.766 105.172 278.391V294H97.0391V277.852C97.0391 276.648 96.7891 275.906 96.2891 275.625C95.8047 275.328 95.0156 275.18 93.9219 275.18V294H85.5781ZM93.9688 268.031H95.9609C97.1016 268.031 97.6719 266.789 97.6719 264.305C97.6719 262.695 97.5469 261.641 97.2969 261.141C97.0469 260.641 96.5781 260.391 95.8906 260.391H93.9688V268.031ZM118.25 294.375C114.484 294.375 111.766 293.438 110.094 291.562C108.438 289.688 107.609 286.703 107.609 282.609V278.578H115.766V283.734C115.766 284.688 115.906 285.438 116.188 285.984C116.484 286.516 116.992 286.781 117.711 286.781C118.461 286.781 118.977 286.562 119.258 286.125C119.555 285.688 119.703 284.969 119.703 283.969C119.703 282.703 119.578 281.648 119.328 280.805C119.078 279.945 118.641 279.133 118.016 278.367C117.406 277.586 116.555 276.68 115.461 275.648L111.758 272.133C108.992 269.523 107.609 266.539 107.609 263.18C107.609 259.664 108.422 256.984 110.047 255.141C111.688 253.297 114.055 252.375 117.148 252.375C120.93 252.375 123.609 253.383 125.188 255.398C126.781 257.414 127.578 260.477 127.578 264.586H119.188V261.75C119.188 261.188 119.023 260.75 118.695 260.438C118.383 260.125 117.953 259.969 117.406 259.969C116.75 259.969 116.266 260.156 115.953 260.531C115.656 260.891 115.508 261.359 115.508 261.938C115.508 262.516 115.664 263.141 115.977 263.812C116.289 264.484 116.906 265.258 117.828 266.133L122.586 270.703C123.539 271.609 124.414 272.57 125.211 273.586C126.008 274.586 126.648 275.758 127.133 277.102C127.617 278.43 127.859 280.055 127.859 281.977C127.859 285.852 127.141 288.891 125.703 291.094C124.281 293.281 121.797 294.375 118.25 294.375Z" fill="#00FFA1"/>
<path d="M0.828125 245V203.75H9.07812V237.969H17.5625V245H0.828125ZM29.75 245.375C26.4531 245.375 23.9297 244.383 22.1797 242.398C20.4453 240.398 19.5781 237.516 19.5781 233.75V214.156C19.5781 210.625 20.4375 207.945 22.1562 206.117C23.8906 204.289 26.4219 203.375 29.75 203.375C33.0781 203.375 35.6016 204.289 37.3203 206.117C39.0547 207.945 39.9219 210.625 39.9219 214.156V233.75C39.9219 237.516 39.0469 240.398 37.2969 242.398C35.5625 244.383 33.0469 245.375 29.75 245.375ZM29.8203 237.781C31.0703 237.781 31.6953 236.57 31.6953 234.148V214.016C31.6953 211.984 31.0859 210.969 29.8672 210.969C28.4922 210.969 27.8047 212.008 27.8047 214.086V234.195C27.8047 235.477 27.9609 236.398 28.2734 236.961C28.5859 237.508 29.1016 237.781 29.8203 237.781ZM47.0469 245L41.9609 203.727H49.8125L52.8359 231.805L55.5312 203.727H63.3828L58.2969 245H47.0469ZM65.7969 245V203.75H82.2969V211.719H74.1875V219.758H81.9688V227.516H74.1875V236.961H82.8359V245H65.7969ZM85.5781 245V203.75H98.2344C100.344 203.75 101.938 204.234 103.016 205.203C104.094 206.156 104.812 207.5 105.172 209.234C105.547 210.953 105.734 212.977 105.734 215.305C105.734 217.555 105.445 219.352 104.867 220.695C104.305 222.039 103.234 222.969 101.656 223.484C102.953 223.75 103.859 224.398 104.375 225.43C104.906 226.445 105.172 227.766 105.172 229.391V245H97.0391V228.852C97.0391 227.648 96.7891 226.906 96.2891 226.625C95.8047 226.328 95.0156 226.18 93.9219 226.18V245H85.5781ZM93.9688 219.031H95.9609C97.1016 219.031 97.6719 217.789 97.6719 215.305C97.6719 213.695 97.5469 212.641 97.2969 212.141C97.0469 211.641 96.5781 211.391 95.8906 211.391H93.9688V219.031ZM118.25 245.375C114.484 245.375 111.766 244.438 110.094 242.562C108.438 240.688 107.609 237.703 107.609 233.609V229.578H115.766V234.734C115.766 235.688 115.906 236.438 116.188 236.984C116.484 237.516 116.992 237.781 117.711 237.781C118.461 237.781 118.977 237.562 119.258 237.125C119.555 236.688 119.703 235.969 119.703 234.969C119.703 233.703 119.578 232.648 119.328 231.805C119.078 230.945 118.641 230.133 118.016 229.367C117.406 228.586 116.555 227.68 115.461 226.648L111.758 223.133C108.992 220.523 107.609 217.539 107.609 214.18C107.609 210.664 108.422 207.984 110.047 206.141C111.688 204.297 114.055 203.375 117.148 203.375C120.93 203.375 123.609 204.383 125.188 206.398C126.781 208.414 127.578 211.477 127.578 215.586H119.188V212.75C119.188 212.188 119.023 211.75 118.695 211.438C118.383 211.125 117.953 210.969 117.406 210.969C116.75 210.969 116.266 211.156 115.953 211.531C115.656 211.891 115.508 212.359 115.508 212.938C115.508 213.516 115.664 214.141 115.977 214.812C116.289 215.484 116.906 216.258 117.828 217.133L122.586 221.703C123.539 222.609 124.414 223.57 125.211 224.586C126.008 225.586 126.648 226.758 127.133 228.102C127.617 229.43 127.859 231.055 127.859 232.977C127.859 236.852 127.141 239.891 125.703 242.094C124.281 244.281 121.797 245.375 118.25 245.375Z" fill="#00FFA1" fill-opacity="0.8"/>
<path d="M0.828125 196V154.75H9.07812V188.969H17.5625V196H0.828125ZM29.75 196.375C26.4531 196.375 23.9297 195.383 22.1797 193.398C20.4453 191.398 19.5781 188.516 19.5781 184.75V165.156C19.5781 161.625 20.4375 158.945 22.1562 157.117C23.8906 155.289 26.4219 154.375 29.75 154.375C33.0781 154.375 35.6016 155.289 37.3203 157.117C39.0547 158.945 39.9219 161.625 39.9219 165.156V184.75C39.9219 188.516 39.0469 191.398 37.2969 193.398C35.5625 195.383 33.0469 196.375 29.75 196.375ZM29.8203 188.781C31.0703 188.781 31.6953 187.57 31.6953 185.148V165.016C31.6953 162.984 31.0859 161.969 29.8672 161.969C28.4922 161.969 27.8047 163.008 27.8047 165.086V185.195C27.8047 186.477 27.9609 187.398 28.2734 187.961C28.5859 188.508 29.1016 188.781 29.8203 188.781ZM47.0469 196L41.9609 154.727H49.8125L52.8359 182.805L55.5312 154.727H63.3828L58.2969 196H47.0469ZM65.7969 196V154.75H82.2969V162.719H74.1875V170.758H81.9688V178.516H74.1875V187.961H82.8359V196H65.7969ZM85.5781 196V154.75H98.2344C100.344 154.75 101.938 155.234 103.016 156.203C104.094 157.156 104.812 158.5 105.172 160.234C105.547 161.953 105.734 163.977 105.734 166.305C105.734 168.555 105.445 170.352 104.867 171.695C104.305 173.039 103.234 173.969 101.656 174.484C102.953 174.75 103.859 175.398 104.375 176.43C104.906 177.445 105.172 178.766 105.172 180.391V196H97.0391V179.852C97.0391 178.648 96.7891 177.906 96.2891 177.625C95.8047 177.328 95.0156 177.18 93.9219 177.18V196H85.5781ZM93.9688 170.031H95.9609C97.1016 170.031 97.6719 168.789 97.6719 166.305C97.6719 164.695 97.5469 163.641 97.2969 163.141C97.0469 162.641 96.5781 162.391 95.8906 162.391H93.9688V170.031ZM118.25 196.375C114.484 196.375 111.766 195.438 110.094 193.562C108.438 191.688 107.609 188.703 107.609 184.609V180.578H115.766V185.734C115.766 186.688 115.906 187.438 116.188 187.984C116.484 188.516 116.992 188.781 117.711 188.781C118.461 188.781 118.977 188.562 119.258 188.125C119.555 187.688 119.703 186.969 119.703 185.969C119.703 184.703 119.578 183.648 119.328 182.805C119.078 181.945 118.641 181.133 118.016 180.367C117.406 179.586 116.555 178.68 115.461 177.648L111.758 174.133C108.992 171.523 107.609 168.539 107.609 165.18C107.609 161.664 108.422 158.984 110.047 157.141C111.688 155.297 114.055 154.375 117.148 154.375C120.93 154.375 123.609 155.383 125.188 157.398C126.781 159.414 127.578 162.477 127.578 166.586H119.188V163.75C119.188 163.188 119.023 162.75 118.695 162.438C118.383 162.125 117.953 161.969 117.406 161.969C116.75 161.969 116.266 162.156 115.953 162.531C115.656 162.891 115.508 163.359 115.508 163.938C115.508 164.516 115.664 165.141 115.977 165.812C116.289 166.484 116.906 167.258 117.828 168.133L122.586 172.703C123.539 173.609 124.414 174.57 125.211 175.586C126.008 176.586 126.648 177.758 127.133 179.102C127.617 180.43 127.859 182.055 127.859 183.977C127.859 187.852 127.141 190.891 125.703 193.094C124.281 195.281 121.797 196.375 118.25 196.375Z" fill="#00FFA1" fill-opacity="0.6"/>
<path d="M0.828125 147V105.75H9.07812V139.969H17.5625V147H0.828125ZM29.75 147.375C26.4531 147.375 23.9297 146.383 22.1797 144.398C20.4453 142.398 19.5781 139.516 19.5781 135.75V116.156C19.5781 112.625 20.4375 109.945 22.1562 108.117C23.8906 106.289 26.4219 105.375 29.75 105.375C33.0781 105.375 35.6016 106.289 37.3203 108.117C39.0547 109.945 39.9219 112.625 39.9219 116.156V135.75C39.9219 139.516 39.0469 142.398 37.2969 144.398C35.5625 146.383 33.0469 147.375 29.75 147.375ZM29.8203 139.781C31.0703 139.781 31.6953 138.57 31.6953 136.148V116.016C31.6953 113.984 31.0859 112.969 29.8672 112.969C28.4922 112.969 27.8047 114.008 27.8047 116.086V136.195C27.8047 137.477 27.9609 138.398 28.2734 138.961C28.5859 139.508 29.1016 139.781 29.8203 139.781ZM47.0469 147L41.9609 105.727H49.8125L52.8359 133.805L55.5312 105.727H63.3828L58.2969 147H47.0469ZM65.7969 147V105.75H82.2969V113.719H74.1875V121.758H81.9688V129.516H74.1875V138.961H82.8359V147H65.7969ZM85.5781 147V105.75H98.2344C100.344 105.75 101.938 106.234 103.016 107.203C104.094 108.156 104.812 109.5 105.172 111.234C105.547 112.953 105.734 114.977 105.734 117.305C105.734 119.555 105.445 121.352 104.867 122.695C104.305 124.039 103.234 124.969 101.656 125.484C102.953 125.75 103.859 126.398 104.375 127.43C104.906 128.445 105.172 129.766 105.172 131.391V147H97.0391V130.852C97.0391 129.648 96.7891 128.906 96.2891 128.625C95.8047 128.328 95.0156 128.18 93.9219 128.18V147H85.5781ZM93.9688 121.031H95.9609C97.1016 121.031 97.6719 119.789 97.6719 117.305C97.6719 115.695 97.5469 114.641 97.2969 114.141C97.0469 113.641 96.5781 113.391 95.8906 113.391H93.9688V121.031ZM118.25 147.375C114.484 147.375 111.766 146.438 110.094 144.562C108.438 142.688 107.609 139.703 107.609 135.609V131.578H115.766V136.734C115.766 137.688 115.906 138.438 116.188 138.984C116.484 139.516 116.992 139.781 117.711 139.781C118.461 139.781 118.977 139.562 119.258 139.125C119.555 138.688 119.703 137.969 119.703 136.969C119.703 135.703 119.578 134.648 119.328 133.805C119.078 132.945 118.641 132.133 118.016 131.367C117.406 130.586 116.555 129.68 115.461 128.648L111.758 125.133C108.992 122.523 107.609 119.539 107.609 116.18C107.609 112.664 108.422 109.984 110.047 108.141C111.688 106.297 114.055 105.375 117.148 105.375C120.93 105.375 123.609 106.383 125.188 108.398C126.781 110.414 127.578 113.477 127.578 117.586H119.188V114.75C119.188 114.188 119.023 113.75 118.695 113.438C118.383 113.125 117.953 112.969 117.406 112.969C116.75 112.969 116.266 113.156 115.953 113.531C115.656 113.891 115.508 114.359 115.508 114.938C115.508 115.516 115.664 116.141 115.977 116.812C116.289 117.484 116.906 118.258 117.828 119.133L122.586 123.703C123.539 124.609 124.414 125.57 125.211 126.586C126.008 127.586 126.648 128.758 127.133 130.102C127.617 131.43 127.859 133.055 127.859 134.977C127.859 138.852 127.141 141.891 125.703 144.094C124.281 146.281 121.797 147.375 118.25 147.375Z" fill="#00FFA1" fill-opacity="0.4"/>
<path d="M0.828125 98V56.75H9.07812V90.9688H17.5625V98H0.828125ZM29.75 98.375C26.4531 98.375 23.9297 97.3828 22.1797 95.3984C20.4453 93.3984 19.5781 90.5156 19.5781 86.75V67.1562C19.5781 63.625 20.4375 60.9453 22.1562 59.1172C23.8906 57.2891 26.4219 56.375 29.75 56.375C33.0781 56.375 35.6016 57.2891 37.3203 59.1172C39.0547 60.9453 39.9219 63.625 39.9219 67.1562V86.75C39.9219 90.5156 39.0469 93.3984 37.2969 95.3984C35.5625 97.3828 33.0469 98.375 29.75 98.375ZM29.8203 90.7812C31.0703 90.7812 31.6953 89.5703 31.6953 87.1484V67.0156C31.6953 64.9844 31.0859 63.9688 29.8672 63.9688C28.4922 63.9688 27.8047 65.0078 27.8047 67.0859V87.1953C27.8047 88.4766 27.9609 89.3984 28.2734 89.9609C28.5859 90.5078 29.1016 90.7812 29.8203 90.7812ZM47.0469 98L41.9609 56.7266H49.8125L52.8359 84.8047L55.5312 56.7266H63.3828L58.2969 98H47.0469ZM65.7969 98V56.75H82.2969V64.7188H74.1875V72.7578H81.9688V80.5156H74.1875V89.9609H82.8359V98H65.7969ZM85.5781 98V56.75H98.2344C100.344 56.75 101.938 57.2344 103.016 58.2031C104.094 59.1562 104.812 60.5 105.172 62.2344C105.547 63.9531 105.734 65.9766 105.734 68.3047C105.734 70.5547 105.445 72.3516 104.867 73.6953C104.305 75.0391 103.234 75.9688 101.656 76.4844C102.953 76.75 103.859 77.3984 104.375 78.4297C104.906 79.4453 105.172 80.7656 105.172 82.3906V98H97.0391V81.8516C97.0391 80.6484 96.7891 79.9062 96.2891 79.625C95.8047 79.3281 95.0156 79.1797 93.9219 79.1797V98H85.5781ZM93.9688 72.0312H95.9609C97.1016 72.0312 97.6719 70.7891 97.6719 68.3047C97.6719 66.6953 97.5469 65.6406 97.2969 65.1406C97.0469 64.6406 96.5781 64.3906 95.8906 64.3906H93.9688V72.0312ZM118.25 98.375C114.484 98.375 111.766 97.4375 110.094 95.5625C108.438 93.6875 107.609 90.7031 107.609 86.6094V82.5781H115.766V87.7344C115.766 88.6875 115.906 89.4375 116.188 89.9844C116.484 90.5156 116.992 90.7812 117.711 90.7812C118.461 90.7812 118.977 90.5625 119.258 90.125C119.555 89.6875 119.703 88.9688 119.703 87.9688C119.703 86.7031 119.578 85.6484 119.328 84.8047C119.078 83.9453 118.641 83.1328 118.016 82.3672C117.406 81.5859 116.555 80.6797 115.461 79.6484L111.758 76.1328C108.992 73.5234 107.609 70.5391 107.609 67.1797C107.609 63.6641 108.422 60.9844 110.047 59.1406C111.688 57.2969 114.055 56.375 117.148 56.375C120.93 56.375 123.609 57.3828 125.188 59.3984C126.781 61.4141 127.578 64.4766 127.578 68.5859H119.188V65.75C119.188 65.1875 119.023 64.75 118.695 64.4375C118.383 64.125 117.953 63.9688 117.406 63.9688C116.75 63.9688 116.266 64.1562 115.953 64.5312C115.656 64.8906 115.508 65.3594 115.508 65.9375C115.508 66.5156 115.664 67.1406 115.977 67.8125C116.289 68.4844 116.906 69.2578 117.828 70.1328L122.586 74.7031C123.539 75.6094 124.414 76.5703 125.211 77.5859C126.008 78.5859 126.648 79.7578 127.133 81.1016C127.617 82.4297 127.859 84.0547 127.859 85.9766C127.859 89.8516 127.141 92.8906 125.703 95.0938C124.281 97.2812 121.797 98.375 118.25 98.375Z" fill="#00FFA1" fill-opacity="0.2"/>
<path d="M0.828125 49V7.75H9.07812V41.9688H17.5625V49H0.828125ZM29.75 49.375C26.4531 49.375 23.9297 48.3828 22.1797 46.3984C20.4453 44.3984 19.5781 41.5156 19.5781 37.75V18.1562C19.5781 14.625 20.4375 11.9453 22.1562 10.1172C23.8906 8.28906 26.4219 7.375 29.75 7.375C33.0781 7.375 35.6016 8.28906 37.3203 10.1172C39.0547 11.9453 39.9219 14.625 39.9219 18.1562V37.75C39.9219 41.5156 39.0469 44.3984 37.2969 46.3984C35.5625 48.3828 33.0469 49.375 29.75 49.375ZM29.8203 41.7812C31.0703 41.7812 31.6953 40.5703 31.6953 38.1484V18.0156C31.6953 15.9844 31.0859 14.9688 29.8672 14.9688C28.4922 14.9688 27.8047 16.0078 27.8047 18.0859V38.1953C27.8047 39.4766 27.9609 40.3984 28.2734 40.9609C28.5859 41.5078 29.1016 41.7812 29.8203 41.7812ZM47.0469 49L41.9609 7.72656H49.8125L52.8359 35.8047L55.5312 7.72656H63.3828L58.2969 49H47.0469ZM65.7969 49V7.75H82.2969V15.7188H74.1875V23.7578H81.9688V31.5156H74.1875V40.9609H82.8359V49H65.7969ZM85.5781 49V7.75H98.2344C100.344 7.75 101.938 8.23438 103.016 9.20312C104.094 10.1563 104.812 11.5 105.172 13.2344C105.547 14.9531 105.734 16.9766 105.734 19.3047C105.734 21.5547 105.445 23.3516 104.867 24.6953C104.305 26.0391 103.234 26.9688 101.656 27.4844C102.953 27.75 103.859 28.3984 104.375 29.4297C104.906 30.4453 105.172 31.7656 105.172 33.3906V49H97.0391V32.8516C97.0391 31.6484 96.7891 30.9062 96.2891 30.625C95.8047 30.3281 95.0156 30.1797 93.9219 30.1797V49H85.5781ZM93.9688 23.0312H95.9609C97.1016 23.0312 97.6719 21.7891 97.6719 19.3047C97.6719 17.6953 97.5469 16.6406 97.2969 16.1406C97.0469 15.6406 96.5781 15.3906 95.8906 15.3906H93.9688V23.0312ZM118.25 49.375C114.484 49.375 111.766 48.4375 110.094 46.5625C108.438 44.6875 107.609 41.7031 107.609 37.6094V33.5781H115.766V38.7344C115.766 39.6875 115.906 40.4375 116.188 40.9844C116.484 41.5156 116.992 41.7812 117.711 41.7812C118.461 41.7812 118.977 41.5625 119.258 41.125C119.555 40.6875 119.703 39.9688 119.703 38.9688C119.703 37.7031 119.578 36.6484 119.328 35.8047C119.078 34.9453 118.641 34.1328 118.016 33.3672C117.406 32.5859 116.555 31.6797 115.461 30.6484L111.758 27.1328C108.992 24.5234 107.609 21.5391 107.609 18.1797C107.609 14.6641 108.422 11.9844 110.047 10.1406C111.688 8.29687 114.055 7.375 117.148 7.375C120.93 7.375 123.609 8.38281 125.188 10.3984C126.781 12.4141 127.578 15.4766 127.578 19.5859H119.188V16.75C119.188 16.1875 119.023 15.75 118.695 15.4375C118.383 15.125 117.953 14.9688 117.406 14.9688C116.75 14.9688 116.266 15.1562 115.953 15.5312C115.656 15.8906 115.508 16.3594 115.508 16.9375C115.508 17.5156 115.664 18.1406 115.977 18.8125C116.289 19.4844 116.906 20.2578 117.828 21.1328L122.586 25.7031C123.539 26.6094 124.414 27.5703 125.211 28.5859C126.008 29.5859 126.648 30.7578 127.133 32.1016C127.617 33.4297 127.859 35.0547 127.859 36.9766C127.859 40.8516 127.141 43.8906 125.703 46.0938C124.281 48.2812 121.797 49.375 118.25 49.375Z" fill="#00FFA1" fill-opacity="0.1"/>
</svg>
