<svg width="36" height="59" viewBox="0 0 36 59" fill="none" xmlns="http://www.w3.org/2000/svg">
<path d="M33.8477 23.835L18.8477 38.2226C18.6386 38.4238 18.3902 38.5834 18.1167 38.6924C17.8433 38.8013 17.55 38.8574 17.2539 38.8574C16.9578 38.8574 16.6646 38.8013 16.3911 38.6924C16.1176 38.5834 15.8692 38.4238 15.6602 38.2226L0.660153 23.835C0.237464 23.4296 -6.29855e-09 22.8797 0 22.3063C6.29855e-09 21.733 0.237464 21.1831 0.660153 20.7776C1.08284 20.3722 1.65613 20.1444 2.2539 20.1444C2.85168 20.1444 3.42496 20.3722 3.84765 20.7776L17.2558 33.6384L30.6639 20.7758C31.0866 20.3704 31.6599 20.1426 32.2577 20.1426C32.8554 20.1426 33.4287 20.3704 33.8514 20.7758C34.2741 21.1813 34.5116 21.7312 34.5116 22.3045C34.5116 22.8779 34.2741 23.4278 33.8514 23.8332L33.8477 23.835Z" fill="#00F0A6"/>
<path d="M33.8477 43.9776L18.8477 58.3652C18.6386 58.5664 18.3902 58.7261 18.1167 58.835C17.8433 58.9439 17.55 59 17.2539 59C16.9578 59 16.6646 58.9439 16.3911 58.835C16.1176 58.7261 15.8692 58.5664 15.6602 58.3652L0.660153 43.9776C0.237464 43.5722 -6.29855e-09 43.0223 0 42.449C6.29855e-09 41.8756 0.237464 41.3257 0.660153 40.9203C1.08284 40.5148 1.65613 40.2871 2.2539 40.2871C2.85168 40.2871 3.42496 40.5148 3.84765 40.9203L17.2558 53.781L30.6639 40.9185C31.0866 40.513 31.6599 40.2853 32.2577 40.2853C32.8554 40.2853 33.4287 40.513 33.8514 40.9185C34.2741 41.3239 34.5116 41.8738 34.5116 42.4472C34.5116 43.0205 34.2741 43.5704 33.8514 43.9758L33.8477 43.9776Z" fill="#00F0A6"/>
<path d="M34.8477 3.69236L19.8477 18.08C19.6386 18.2812 19.3902 18.4408 19.1167 18.5497C18.8433 18.6586 18.55 18.7147 18.2539 18.7147C17.9578 18.7147 17.6646 18.6586 17.3911 18.5497C17.1176 18.4408 16.8692 18.2812 16.6602 18.08L1.66015 3.69236C1.23746 3.28693 1 2.73705 1 2.16368C1 1.59031 1.23746 1.04043 1.66015 0.634999C2.08284 0.229568 2.65613 0.00179884 3.2539 0.00179883C3.85168 0.00179883 4.42496 0.229568 4.84765 0.634999L18.2558 13.4957L31.6639 0.633202C32.0866 0.22777 32.6599 0 33.2577 0C33.8554 0 34.4287 0.22777 34.8514 0.633202C35.2741 1.03863 35.5116 1.58852 35.5116 2.16188C35.5116 2.73525 35.2741 3.28514 34.8514 3.69057L34.8477 3.69236Z" fill="#00F0A6"/>
</svg>
